<svg xmlns="http://www.w3.org/2000/svg" viewBox="0 0 523 464.59"><defs><style>.cls-1{font-size:31px;font-family:NiagaraEngraved-Reg, Niagara Engraved;}.cls-2{letter-spacing:0.8em;}.cls-3{letter-spacing:0.8em;}.cls-4{letter-spacing:0.8em;}.cls-5{letter-spacing:0.8em;}.cls-6{fill:#e20000;}.cls-7{fill:#fcfafa;}</style></defs><title>11Asset 2</title><g id="Layer_2" data-name="Layer 2"><g id="Layer_3" data-name="Layer 3"><path d="M517,283.39a106.77,106.77,0,0,1-23.71,6.82,76.34,76.34,0,0,1-48.51-7.95,114,114,0,0,1-20.65-14.19,60.33,60.33,0,0,1-8.62-9.44,64,64,0,0,1-6.47-11A77.84,77.84,0,0,1,402.46,223a97.39,97.39,0,0,1,.83-25.41,106.49,106.49,0,0,1,7-24.49A93,93,0,0,1,423.48,151a68.22,68.22,0,0,1,20-17A55.77,55.77,0,0,1,456,129a51.39,51.39,0,0,1,13.48-1.6,45.45,45.45,0,0,1,6.88.56,37.2,37.2,0,0,1,6.89,1.82,39.63,39.63,0,0,1,6.42,3,42.26,42.26,0,0,1,5.72,4.07,54.16,54.16,0,0,1,15.48,22.32,56.57,56.57,0,0,1,3.51,27,44,44,0,0,1-1.49,7c-.34,1.13-.73,2.15-1.1,3.24-.2.53-.37,1.07-.58,1.59l-.67,1.56c-.84,2.1-1.89,4.09-2.91,6.1s-2.21,3.91-3.49,5.74-2.58,3.64-3.92,5.42-2.81,3.45-4.35,5a92.18,92.18,0,0,1-9.63,9A113.7,113.7,0,0,1,464.18,245a124.63,124.63,0,0,1-12,5.1,129.6,129.6,0,0,1-12.57,3.73,115.66,115.66,0,0,1-13,2.24,87.19,87.19,0,0,1-13.45.39,64.28,64.28,0,0,1-13.72-2.07A25,25,0,0,1,395.3,253c-.34-.16-.69-.33-1-.51l-.86-.47-1.35-.73a34,34,0,0,1-6.38-4.59,56.19,56.19,0,0,1-9.1-11c-.6-1-1.21-1.92-1.79-2.89l-1.66-2.9L371.59,227l-.19-.37-.07-.13,0,.08-.29-.49-.78-1.29c-2.06-3.46-4.19-6.83-6.36-10.08a74.9,74.9,0,0,0-6.67-8.79l-.79-.8c-.26-.26-.48-.42-.71-.64-.39-.31-.78-.56-.65-.45a1.2,1.2,0,0,0,.38.12l.12,0h-.27a5.56,5.56,0,0,0-1.15.16,10.09,10.09,0,0,0-3,1.41,24.35,24.35,0,0,0-3.4,2.88l-.84.9-.91,1c-.61.67-1.19,1.39-1.79,2.11-1.18,1.45-2.33,3-3.47,4.53-2.29,3.13-4.51,6.46-6.85,9.91a104.52,104.52,0,0,1-8,10.79c-.39.46-.88,1-1.36,1.44l-.73.73c-.25.24-.56.5-.84.75l-.88.74-.22.18-.31.24c-.21.16-.43.31-.65.46a16.81,16.81,0,0,1-9,2.81c.12,0-.8,0,.16,0h-1.27a16.76,16.76,0,0,1-1.72-.12,16.59,16.59,0,0,1-3.32-.8,17.71,17.71,0,0,1-5.22-3,23.8,23.8,0,0,1-3.4-3.43,42,42,0,0,1-4.29-6.52c-2.26-4.17-3.91-8.09-5.57-11.78a74,74,0,0,0-4.93-9.72,10.55,10.55,0,0,0-2-2.44c-.17-.13-.16-.07.07,0a2.07,2.07,0,0,0,.78.11c.36,0-.33.08-1.26.82-.23.18-.47.36-.73.59s-.52.45-.78.7-.6.59-.91.9-.56.58-.84.87a65.16,65.16,0,0,0-6.34,8.64c-2.17,3.33-4.35,6.88-6.86,10.52-1.28,1.83-2.57,3.67-4.12,5.55a42.89,42.89,0,0,1-5.42,5.66l-1.78,1.41c-.24.2-.75.53-1.19.81s-.93.55-1.41.79a17.92,17.92,0,0,1-6.26,1.79,17.54,17.54,0,0,1-3.32,0c-.56-.05-1.11-.14-1.65-.24a15.46,15.46,0,0,1-1.78-.45l-.51-.16c-.16,0-.25-.1-.38-.15l-.72-.3-.71-.32-.57-.29a24.31,24.31,0,0,1-2.18-1.26,31.15,31.15,0,0,1-6.58-5.92,52,52,0,0,1-4.42-6.13c-2.5-4-4.44-7.93-6.29-11.59a92.47,92.47,0,0,0-5.34-9.68,12,12,0,0,0-2.06-2.43c-.17-.12-.13,0,.17.07a2.48,2.48,0,0,0,1.07.14c.3,0,.34-.07.16,0a6,6,0,0,0-1,.62,21.29,21.29,0,0,0-3,2.9l.73-.92c-1.27,1.85-2.71,4.48-4.17,7.21s-3,5.65-4.78,8.62a72.77,72.77,0,0,1-6.21,9c-.3.38-.65.76-1,1.13l-.5.57-.25.28-.39.39c-.51.5-1,1-1.57,1.48s-1.16.89-1.76,1.31a21.45,21.45,0,0,1-24.74-.5,21,21,0,0,1-5.83-6.52l-2.34-4.11a97.18,97.18,0,0,0-9.73-14.07,49.2,49.2,0,0,0-5.55-5.69,32.22,32.22,0,0,0-5.83-4.13,20.45,20.45,0,0,0-3-1.3c-1.1-.4-2.13-.6-3.18-.91a31.09,31.09,0,0,0-7-.44,65.09,65.09,0,0,0-16,2.94A114.37,114.37,0,0,0,85,212.09a145,145,0,0,0-29.78,18.75,117.93,117.93,0,0,0-12.63,11.89,76.49,76.49,0,0,0-9.87,13.35,40.58,40.58,0,0,0-5.21,14.08l-.2,1.72-.11.86v2.94l0,.48.08,1a48.29,48.29,0,0,0,1.28,7.65c2.52,10,8.37,19.22,16.27,24.16a27.82,27.82,0,0,0,12.94,4.26,38.59,38.59,0,0,0,14.64-2,47.83,47.83,0,0,0,7.16-3,59,59,0,0,0,6.75-4.2,67,67,0,0,0,12-11.2,92.37,92.37,0,0,0,16.45-29.74,87.57,87.57,0,0,0,4.66-33.78c-.78-11.23-4.41-22.09-11.43-30.36a42.86,42.86,0,0,0-5.87-5.63,40.57,40.57,0,0,0-3.33-2.43l-1.76-1.12-2-1.08-3.93-2.17c-1.32-.72-2.69-1.28-4-1.93l-2-.95c-.34-.15-.67-.32-1-.47l-1-.4-4.16-1.61a18,18,0,0,0-2.11-.71l-2.13-.64a38.32,38.32,0,0,0-4.29-1.16l-4.35-1-4.41-.61a76,76,0,0,0-17.89.12c-12,1.64-23.68,6.23-34.65,12.34l-.92-1.39c10-7.82,21.45-14.31,34.27-17.61a78.09,78.09,0,0,1,19.73-2.31l5,.17,5,.58a45.9,45.9,0,0,1,4.94.84l2.46.5a22,22,0,0,1,2.43.57,94.32,94.32,0,0,1,9.55,3c1.55.59,3.15,1.11,4.66,1.78l4.54,2,2.27,1,2.34,1.22a49.35,49.35,0,0,1,4.56,2.76,55.94,55.94,0,0,1,8.29,6.86,59.81,59.81,0,0,1,12,17.77,75.31,75.31,0,0,1,5.56,20.32,93.21,93.21,0,0,1,.32,20.71,107.21,107.21,0,0,1-3.82,20.19,107.44,107.44,0,0,1-18.7,36.71,86.05,86.05,0,0,1-15.18,15A68.21,68.21,0,0,1,79,330.58a63.45,63.45,0,0,1-10.92,2.73,54.49,54.49,0,0,1-11.64.59,48.39,48.39,0,0,1-22.65-7.31A55,55,0,0,1,17.3,310.35a66,66,0,0,1-9-20.5,70.44,70.44,0,0,1-1.81-11l-.1-1.4,0-.69V273l0-1.52L6.58,270l.36-3a61.35,61.35,0,0,1,7.77-21.21,96.64,96.64,0,0,1,12.57-17,138.18,138.18,0,0,1,14.92-14,163.81,163.81,0,0,1,34.12-21.34,137.37,137.37,0,0,1,19.08-7.28,85.12,85.12,0,0,1,21.13-3.64,50.42,50.42,0,0,1,11.82.91c2,.52,4,1,5.9,1.72a40.43,40.43,0,0,1,5.66,2.54,52.71,52.71,0,0,1,9.55,6.78,69.35,69.35,0,0,1,7.6,7.88c1.18,1.35,2.21,2.75,3.3,4.14s2.06,2.81,3,4.24c2,2.84,3.68,5.75,5.38,8.66.43.73.82,1.46,1.23,2.2l.61,1.1.3.55.13.23,0,0a1.35,1.35,0,0,0,.4.49,1.6,1.6,0,0,0,1.26.3,2,2,0,0,0,.59-.21l.15-.09.14-.14,0,0,.13-.15.29-.33.58-.64a55.42,55.42,0,0,0,4.52-6.51c1.48-2.43,2.93-5.09,4.46-7.88a99.35,99.35,0,0,1,5.44-9.06l.33-.48.4-.44a40.44,40.44,0,0,1,6-5.48,24.81,24.81,0,0,1,4.29-2.57,19,19,0,0,1,6-1.68,16.74,16.74,0,0,1,7.15.82,18.87,18.87,0,0,1,5.52,3.07,30,30,0,0,1,6,6.8,108.08,108.08,0,0,1,6.51,11.92c1.81,3.69,3.52,7.16,5.34,10.13s3.78,5.36,5.21,6.27c.27.21.89.46.41.3l-.29-.07-.13,0h-.24a1.07,1.07,0,0,0-.37.12l-.06,0s-.08.07.07-.07.43-.34.65-.49a27,27,0,0,0,3.1-3.22c1.09-1.27,2.18-2.78,3.28-4.3,2.2-3.1,4.37-6.52,6.73-10,1.17-1.76,2.42-3.57,3.78-5.41.66-.92,1.42-1.86,2.16-2.8s1.6-1.92,2.52-2.83c.43-.44.91-.94,1.31-1.32s.78-.79,1.31-1.26,1-.89,1.53-1.33,1.09-.88,1.69-1.31,1.27-.85,1.92-1.27a23.6,23.6,0,0,1,2.25-1.18,18.88,18.88,0,0,1,5.73-1.63,16.08,16.08,0,0,1,6.86.72,17.68,17.68,0,0,1,5.44,3,27.63,27.63,0,0,1,5.95,6.88,88.68,88.68,0,0,1,6.13,12.28c1.65,3.83,3.18,7.5,4.8,10.58a26,26,0,0,0,2.38,3.82,9.59,9.59,0,0,0,.9,1c.2.18.24.16.07.11a1.07,1.07,0,0,0-.34-.07h-.3c1.1,0,.3,0,.55,0l-.15.06-.1.07,0,0h0l.08-.07.3-.25c.1-.09.2-.15.32-.26l.36-.36c.25-.24.49-.46.77-.78a94.13,94.13,0,0,0,6.8-8.87c2.33-3.31,4.73-6.78,7.36-10.24,1.32-1.73,2.67-3.46,4.12-5.17.73-.85,1.45-1.71,2.24-2.55l1.16-1.26,1.29-1.32a39.19,39.19,0,0,1,6.12-4.92,26.17,26.17,0,0,1,8.26-3.54,22.44,22.44,0,0,1,5-.51l1.27.06c.52,0,1.07.1,1.64.21a15.1,15.1,0,0,1,3.31,1.06,18.87,18.87,0,0,1,4.48,2.93c.52.48,1.09,1,1.55,1.45l1.36,1.42a90.64,90.64,0,0,1,8.06,10.94q3.48,5.43,6.59,10.88l.79,1.36.48.85.49.95,1.28,2.55,1.35,2.46,1.42,2.38a40.78,40.78,0,0,0,6.37,8.1,18.48,18.48,0,0,0,3.54,2.67l1.35.77.48.27.35.19a8.84,8.84,0,0,0,1.72.63A49.06,49.06,0,0,0,414,241.78a73.22,73.22,0,0,0,11.17-.13,97,97,0,0,0,11.28-1.72q5.61-1.26,11.11-3.08c3.64-1.27,7.24-2.66,10.75-4.27A100.4,100.4,0,0,0,478,220.68a78.17,78.17,0,0,0,8.53-7.6c1.36-1.33,2.56-2.78,3.81-4.19s2.38-2.93,3.42-4.49,2-3.12,3-4.7,1.8-3.26,2.52-5l.58-1.26c.19-.43.33-.86.5-1.29.32-.86.69-1.74,1-2.57a33.09,33.09,0,0,0,1.2-5,45.08,45.08,0,0,0-2.31-21.45,43.3,43.3,0,0,0-11.81-18.1,33,33,0,0,0-4.22-3.17,29.86,29.86,0,0,0-4.66-2.34,27.53,27.53,0,0,0-5-1.46c-.87-.12-1.68-.31-2.62-.37s-1.84-.19-2.76-.2a43,43,0,0,0-21.42,4.69A59.21,59.21,0,0,0,430,156.44a84.9,84.9,0,0,0-12.6,19.76,97,97,0,0,0-8.84,46.25,72.16,72.16,0,0,0,5.2,23A56.46,56.46,0,0,0,427,264.93a111,111,0,0,0,19.36,14.41A74.56,74.56,0,0,0,493.1,289,109.81,109.81,0,0,0,517,283.39Z"/><text class="cls-1" transform="translate(159.37 359.78)"><tspan class="cls-2">O</tspan><tspan class="cls-3" x="34.06" y="0">B</tspan><tspan class="cls-4" x="68.32" y="0">R</tspan><tspan class="cls-5" x="102.7" y="0">E</tspan><tspan class="cls-4" x="136.5" y="0">GO</tspan><tspan x="204.62" y="0">N</tspan></text><path d="M15,138.09A123.06,123.06,0,0,1,138.09,15H508V138.09h15V0H138.09A138.06,138.06,0,0,0,0,138.09Z"/><path d="M0,326.5V464.59H384.91A138.06,138.06,0,0,0,523,326.5H508A123.06,123.06,0,0,1,384.91,449.59H15V326.5Z"/><circle class="cls-6" cx="277.29" cy="128.62" r="24.87"/><path d="M306.54,128.62h-1.12a28.12,28.12,0,1,1-4.8-15.73,28.06,28.06,0,0,1,4.8,15.73h2.24a30.37,30.37,0,1,0-8.89,21.48,30.33,30.33,0,0,0,8.89-21.48Z"/><path class="cls-7" d="M258.14,111.51a37,37,0,0,0,1.23,7.61,28.16,28.16,0,0,0,4.28,9.12,23.08,23.08,0,0,0,4.71,4.83,24.31,24.31,0,0,0,6.77,3.61h0l.23-.65-.26.64h0l.23-.65-.26.64h0l.16-.35-.16.35h0l.16-.35-.16.35h0l.25-.57-.25.57h0l.25-.57-.25.57h0s.43.2,1.08.58a28.26,28.26,0,0,1,5.56,4.45,36.72,36.72,0,0,1,6.93,10l1.89-.9a38.78,38.78,0,0,0-7.33-10.61,30.18,30.18,0,0,0-6-4.78,13.65,13.65,0,0,0-1.31-.7h0l0,0-.06,0h0a22.74,22.74,0,0,1-6.2-3.3,21.25,21.25,0,0,1-4.29-4.41,26.1,26.1,0,0,1-3.95-8.44,34.59,34.59,0,0,1-1.16-7.16Z"/><path class="cls-7" d="M258.11,110.69c0,.25,0,.53,0,.82l2.09-.11q0-.42,0-.78Z"/><path class="cls-7" d="M258.12,108.39s0,.49,0,1.29v.44l2.1,0c0-.14,0-.28,0-.41,0-.37,0-.66,0-.85s0-.18,0-.22v-.06h0l-.39,0,.39,0h0l-.39,0,.39,0Z"/><path class="cls-7" d="M277.61,136.94a46.62,46.62,0,0,1,5.74-7.1,42.39,42.39,0,0,1,3.38-3.08c1.52-1.23,2.8-2.1,3.94-3a14.83,14.83,0,0,0,1.61-1.46,10.72,10.72,0,0,0,1.39-1.8,11.77,11.77,0,0,0,1.25-2.9,14.1,14.1,0,0,0,.5-3.93,23.43,23.43,0,0,0-.7-5.44l-2,.49a21.31,21.31,0,0,1,.65,5,12.54,12.54,0,0,1-.43,3.36,9.37,9.37,0,0,1-1,2.38,8.93,8.93,0,0,1-1.55,1.88,19,19,0,0,1-1.51,1.26c-.86.65-1.86,1.36-3,2.28a44.67,44.67,0,0,0-3.94,3.55,48.65,48.65,0,0,0-6,7.42Z"/><path class="cls-7" d="M265.54,127.55c0-.34,0-.71,0-1.1a15.36,15.36,0,0,1,.9-5.2,16.17,16.17,0,0,1,1.81-3.52,13.1,13.1,0,0,1,3.91-3.77,8.63,8.63,0,0,1,2-1,8,8,0,0,1,1-.24,9.78,9.78,0,0,1,1.86-.19,6.9,6.9,0,0,1,2.27.36,5.44,5.44,0,0,1,1.06.51,4.83,4.83,0,0,1,1,.83,5.17,5.17,0,0,1,1,1.67,5.73,5.73,0,0,1,.35,2,5.54,5.54,0,0,1-.3,1.84h0a.65.65,0,0,0-.07.16,6.92,6.92,0,0,1-1.16,1.85,5.26,5.26,0,0,1-1.15,1,4.44,4.44,0,0,1-1.53.59,4.71,4.71,0,0,1-.74.06,4.46,4.46,0,0,1-1.61-.3,5.73,5.73,0,0,1-2.09-1.38,6.28,6.28,0,0,1-1.38-2,5.62,5.62,0,0,1-.42-2.17,6.61,6.61,0,0,1,.21-1.64l-2-.51a8.73,8.73,0,0,0-.28,2.15,7.71,7.71,0,0,0,.59,3,8.38,8.38,0,0,0,1.09,1.86,8.57,8.57,0,0,0,2.53,2.21,7,7,0,0,0,3.39.92,5.92,5.92,0,0,0,1.1-.1,6.29,6.29,0,0,0,2.57-1.06,8.35,8.35,0,0,0,2.23-2.42,9.92,9.92,0,0,0,.52-1c.06-.13.1-.24.14-.32l.06-.18a7.59,7.59,0,0,0,.43-2.52,7.78,7.78,0,0,0-.49-2.71,7.23,7.23,0,0,0-1.38-2.33,6.93,6.93,0,0,0-1.38-1.19,7.08,7.08,0,0,0-2.27-1,9.06,9.06,0,0,0-2.2-.25,11.83,11.83,0,0,0-2.26.22,11.46,11.46,0,0,0-1.23.3,10.65,10.65,0,0,0-2.5,1.19,15.13,15.13,0,0,0-4.54,4.37,18.14,18.14,0,0,0-2,4,17.17,17.17,0,0,0-1,5.91c0,.44,0,.86,0,1.24Z"/></g></g></svg>