<svg xmlns="http://www.w3.org/2000/svg" viewBox="0 0 523 464.59"><defs><style>.cls-1,.cls-2{fill:#19222d;}.cls-2{font-size:35px;font-family:NiagaraSolid-Reg, Niagara Solid;letter-spacing:0.8em;}.cls-3{fill:none;stroke:#19222d;stroke-miterlimit:10;stroke-width:15px;}.cls-4{fill:#fb4b4e;}.cls-5{fill:#fcfafa;}</style></defs><title>12Asset 4</title><g id="Layer_2" data-name="Layer 2"><g id="Layer_3" data-name="Layer 3"><path class="cls-1" d="M517,283.39a106.77,106.77,0,0,1-23.71,6.82,76.34,76.34,0,0,1-48.51-7.95,114,114,0,0,1-20.65-14.19,60.33,60.33,0,0,1-8.62-9.44,64,64,0,0,1-6.47-11A77.84,77.84,0,0,1,402.46,223a97.39,97.39,0,0,1,.83-25.41,106,106,0,0,1,7-24.49A92.6,92.6,0,0,1,423.48,151a68.1,68.1,0,0,1,20-17A56,56,0,0,1,456,129a51.39,51.39,0,0,1,13.48-1.6,45.45,45.45,0,0,1,6.88.56,37.2,37.2,0,0,1,6.89,1.82,39.63,39.63,0,0,1,6.42,3,43.66,43.66,0,0,1,5.73,4.07,54.23,54.23,0,0,1,15.47,22.32,56.57,56.57,0,0,1,3.51,27,44,44,0,0,1-1.49,7c-.34,1.13-.73,2.15-1.1,3.24-.2.53-.37,1.07-.58,1.59l-.67,1.56c-.84,2.1-1.89,4.09-2.91,6.1s-2.21,3.91-3.49,5.74-2.58,3.64-3.92,5.42-2.81,3.45-4.35,5a93.35,93.35,0,0,1-9.63,9A114.13,114.13,0,0,1,464.18,245a124.56,124.56,0,0,1-12,5.09,126.9,126.9,0,0,1-12.57,3.74,115.66,115.66,0,0,1-13,2.24,87.19,87.19,0,0,1-13.45.39,63.59,63.59,0,0,1-13.72-2.08A24,24,0,0,1,395.3,253c-.34-.16-.69-.33-1-.51l-.86-.47-1.35-.73a34,34,0,0,1-6.38-4.59,56.19,56.19,0,0,1-9.1-11c-.6-1-1.21-1.92-1.79-2.89l-1.66-2.9L371.59,227l-.19-.37s-.09-.18-.07-.13l0,.08-.29-.49-.78-1.29c-2.06-3.45-4.19-6.83-6.36-10.08a74.9,74.9,0,0,0-6.67-8.79l-.79-.8c-.26-.26-.48-.42-.71-.64a3.09,3.09,0,0,0-.65-.45,1.2,1.2,0,0,0,.38.12c.07,0,.1,0,.12,0h-.27a5.56,5.56,0,0,0-1.15.16,10.09,10.09,0,0,0-3,1.41,23.74,23.74,0,0,0-3.39,2.88l-.85.9-.91,1c-.61.67-1.19,1.39-1.79,2.11-1.18,1.45-2.33,3-3.47,4.53-2.29,3.13-4.51,6.46-6.85,9.91a104.52,104.52,0,0,1-8,10.79c-.39.46-.88,1-1.36,1.44l-.73.73c-.25.24-.56.5-.84.75l-.88.74-.22.18-.3.24-.66.46a16.81,16.81,0,0,1-9,2.81c.12,0-.8,0,.16,0h-1.27a16.76,16.76,0,0,1-1.72-.12,16.59,16.59,0,0,1-3.32-.8,17.71,17.71,0,0,1-5.22-3,23.8,23.8,0,0,1-3.4-3.43,42,42,0,0,1-4.29-6.52c-2.26-4.17-3.91-8.09-5.57-11.78a73.4,73.4,0,0,0-4.93-9.72,10.92,10.92,0,0,0-2-2.45c-.17-.12-.16-.06.07,0a2.07,2.07,0,0,0,.78.11c.36-.05-.33.08-1.26.82-.23.17-.47.36-.73.59s-.52.46-.78.7-.6.59-.91.9-.56.58-.84.87a65.16,65.16,0,0,0-6.34,8.64c-2.17,3.33-4.35,6.88-6.86,10.52-1.28,1.83-2.57,3.67-4.12,5.55a43.54,43.54,0,0,1-5.42,5.66l-1.78,1.41c-.24.2-.75.53-1.19.81s-.93.55-1.41.79a17.92,17.92,0,0,1-6.26,1.79,17.54,17.54,0,0,1-3.32,0c-.56-.05-1.11-.14-1.65-.24a15.46,15.46,0,0,1-1.78-.45l-.51-.16c-.16,0-.25-.1-.38-.15l-.72-.3-.71-.32-.57-.29c-.77-.39-1.48-.82-2.18-1.26a31.15,31.15,0,0,1-6.58-5.92,52,52,0,0,1-4.42-6.13c-2.5-4-4.44-7.93-6.29-11.59a92.47,92.47,0,0,0-5.34-9.68,12,12,0,0,0-2.06-2.43c-.17-.12-.13,0,.17.07a2.48,2.48,0,0,0,1.07.14c.3,0,.34-.07.16,0a6,6,0,0,0-1,.62,21.29,21.29,0,0,0-3,2.9l.73-.92c-1.27,1.85-2.71,4.48-4.17,7.21s-3,5.65-4.78,8.62a72.77,72.77,0,0,1-6.21,9c-.31.38-.65.76-1,1.13l-.5.57-.25.28-.39.39c-.51.5-1,1-1.57,1.48s-1.16.89-1.76,1.31a21.45,21.45,0,0,1-24.74-.5,21,21,0,0,1-5.83-6.52l-2.34-4.11a97.18,97.18,0,0,0-9.73-14.07,49.2,49.2,0,0,0-5.55-5.69,32.22,32.22,0,0,0-5.83-4.13,20.45,20.45,0,0,0-3-1.3c-1.1-.4-2.14-.6-3.18-.91a31.09,31.09,0,0,0-7-.44,66,66,0,0,0-16,2.93A115.65,115.65,0,0,0,85,212.09a145,145,0,0,0-29.78,18.75,117.93,117.93,0,0,0-12.63,11.89,76.18,76.18,0,0,0-9.87,13.36,40.53,40.53,0,0,0-5.21,14.07l-.2,1.72-.11.86v2.94l0,.48.08,1a48.29,48.29,0,0,0,1.28,7.65c2.52,10,8.37,19.22,16.27,24.16a27.82,27.82,0,0,0,12.94,4.26,38.59,38.59,0,0,0,14.64-2,47.83,47.83,0,0,0,7.16-3,59,59,0,0,0,6.75-4.2,66.6,66.6,0,0,0,12-11.2,92.37,92.37,0,0,0,16.45-29.74,87.57,87.57,0,0,0,4.66-33.78c-.78-11.23-4.41-22.09-11.43-30.36a42.86,42.86,0,0,0-5.87-5.63,40.57,40.57,0,0,0-3.33-2.43l-1.76-1.12-2-1.08-3.93-2.17c-1.32-.72-2.69-1.28-4-1.93l-2-.95c-.34-.15-.67-.32-1-.47l-1-.4-4.16-1.61a18,18,0,0,0-2.11-.71l-2.13-.64a38.32,38.32,0,0,0-4.29-1.16l-4.35-1-4.41-.61a76,76,0,0,0-17.89.12c-12,1.64-23.68,6.23-34.65,12.34l-.92-1.39c10-7.82,21.45-14.31,34.27-17.61a78.09,78.09,0,0,1,19.73-2.31l5,.17,5,.58a45.9,45.9,0,0,1,4.94.84l2.46.5a22,22,0,0,1,2.43.57,94.32,94.32,0,0,1,9.55,3c1.55.6,3.15,1.11,4.66,1.78l4.54,2,2.27,1,2.34,1.22a49.35,49.35,0,0,1,4.56,2.76,55.94,55.94,0,0,1,8.29,6.86,59.81,59.81,0,0,1,12,17.77,75.31,75.31,0,0,1,5.56,20.32,93.21,93.21,0,0,1,.32,20.71,107.21,107.21,0,0,1-3.82,20.19,107.71,107.71,0,0,1-18.7,36.71,86.05,86.05,0,0,1-15.18,15A68.21,68.21,0,0,1,79,330.58a62.54,62.54,0,0,1-10.92,2.73,54.49,54.49,0,0,1-11.64.59,48.39,48.39,0,0,1-22.65-7.31A55,55,0,0,1,17.3,310.35a66,66,0,0,1-9-20.5,70.37,70.37,0,0,1-1.81-11l-.1-1.39,0-.69V273l0-1.52L6.58,270l.36-3a61.35,61.35,0,0,1,7.77-21.21,96.64,96.64,0,0,1,12.57-17,138.18,138.18,0,0,1,14.92-14,163.81,163.81,0,0,1,34.12-21.34,136.12,136.12,0,0,1,19.08-7.28,85.12,85.12,0,0,1,21.13-3.64,50.46,50.46,0,0,1,11.82.91,61,61,0,0,1,5.9,1.72,40.43,40.43,0,0,1,5.66,2.54,53.15,53.15,0,0,1,9.56,6.78,70.11,70.11,0,0,1,7.59,7.88c1.18,1.35,2.21,2.75,3.29,4.14s2.07,2.81,3,4.24c2,2.84,3.68,5.75,5.38,8.66.43.73.82,1.46,1.23,2.2l.61,1.1.3.55.13.23,0,0a1.23,1.23,0,0,0,.4.48,1.56,1.56,0,0,0,1.26.31,2,2,0,0,0,.59-.21.29.29,0,0,1,.15-.09.38.38,0,0,1,.14-.14l0,0,.13-.15.29-.33c.19-.21.38-.41.57-.64a54.26,54.26,0,0,0,4.53-6.51c1.48-2.43,2.92-5.09,4.46-7.88a99.35,99.35,0,0,1,5.44-9.06l.33-.48.4-.44a40.44,40.44,0,0,1,6-5.48,24.81,24.81,0,0,1,4.29-2.57,19,19,0,0,1,6-1.68,16.74,16.74,0,0,1,7.15.82,19.1,19.1,0,0,1,5.52,3.07,30,30,0,0,1,6,6.8,108.08,108.08,0,0,1,6.51,11.92c1.81,3.69,3.53,7.16,5.34,10.13s3.78,5.36,5.21,6.27c.27.21.89.46.41.3l-.29-.07-.13,0h-.24a1.07,1.07,0,0,0-.37.12l-.06,0s-.08.07.08-.07a7.73,7.73,0,0,1,.64-.49,27,27,0,0,0,3.1-3.22c1.09-1.27,2.18-2.78,3.28-4.3,2.2-3.1,4.37-6.52,6.73-10,1.17-1.76,2.42-3.57,3.78-5.41.66-.92,1.42-1.86,2.16-2.8s1.6-1.92,2.52-2.83c.43-.44.91-.94,1.31-1.32s.78-.79,1.31-1.26,1-.89,1.53-1.33,1.09-.88,1.69-1.31,1.27-.85,1.92-1.27a23.6,23.6,0,0,1,2.25-1.18,18.88,18.88,0,0,1,5.73-1.63,16.08,16.08,0,0,1,6.86.72,17.68,17.68,0,0,1,5.44,3,27.63,27.63,0,0,1,5.95,6.88,88.68,88.68,0,0,1,6.13,12.28c1.65,3.83,3.18,7.5,4.8,10.58a26,26,0,0,0,2.38,3.82,9.59,9.59,0,0,0,.9,1c.2.18.24.17.07.11a1.07,1.07,0,0,0-.34-.07c-.06,0-.13,0-.18,0a.11.11,0,0,0-.08,0h0c1.1,0,.3,0,.55,0a.42.42,0,0,0-.15.06.3.3,0,0,0-.1.07l0,0h0l.08-.07.3-.25c.1-.09.2-.15.32-.26l.36-.36a9.53,9.53,0,0,0,.77-.78,92.48,92.48,0,0,0,6.8-8.87c2.33-3.31,4.73-6.78,7.36-10.24,1.32-1.73,2.67-3.46,4.12-5.17.73-.85,1.45-1.71,2.24-2.54l1.16-1.27,1.29-1.32a39.19,39.19,0,0,1,6.12-4.92,25.94,25.94,0,0,1,8.26-3.53,21.86,21.86,0,0,1,5-.52l1.27.06c.52,0,1.07.1,1.64.21a14.58,14.58,0,0,1,3.31,1.06,18.87,18.87,0,0,1,4.48,2.93c.52.48,1.1,1,1.55,1.45l1.36,1.42a90.64,90.64,0,0,1,8.06,10.94q3.48,5.43,6.59,10.88l.79,1.36.48.85.49.95,1.28,2.55,1.35,2.46,1.42,2.38a41.15,41.15,0,0,0,6.37,8.1,18.48,18.48,0,0,0,3.54,2.67l1.35.77.48.27.35.18a8.2,8.2,0,0,0,1.72.64A49.06,49.06,0,0,0,414,241.78a73.22,73.22,0,0,0,11.17-.13,97,97,0,0,0,11.28-1.72q5.61-1.26,11.11-3.08c3.64-1.27,7.24-2.66,10.75-4.27A100.4,100.4,0,0,0,478,220.68a78.17,78.17,0,0,0,8.53-7.6c1.36-1.33,2.56-2.78,3.81-4.19s2.38-2.93,3.42-4.49,2-3.12,3-4.7,1.8-3.26,2.52-5l.58-1.26c.19-.43.33-.86.5-1.29.31-.86.69-1.74,1-2.57a33.09,33.09,0,0,0,1.2-5,45.08,45.08,0,0,0-2.31-21.45,43.3,43.3,0,0,0-11.81-18.1,33,33,0,0,0-4.22-3.17,29.86,29.86,0,0,0-4.66-2.34,27.53,27.53,0,0,0-5-1.46c-.87-.12-1.68-.31-2.62-.37s-1.84-.19-2.76-.2a43,43,0,0,0-21.42,4.69A59.21,59.21,0,0,0,430,156.44a84.9,84.9,0,0,0-12.6,19.76,97,97,0,0,0-8.84,46.25,72.16,72.16,0,0,0,5.2,23A56.46,56.46,0,0,0,427,264.93a111,111,0,0,0,19.36,14.41A74.56,74.56,0,0,0,493.1,289,109.81,109.81,0,0,0,517,283.39Z"/><text class="cls-2" transform="translate(155.37 351.58)">OBREGON</text><path class="cls-3" d="M7.5,138.09h0A130.59,130.59,0,0,1,138.09,7.5H515.5V138.09"/><path class="cls-3" d="M7.5,326.5V457.09H384.91A130.59,130.59,0,0,0,515.5,326.5h0"/><path class="cls-4" d="M302.15,128.62a24.84,24.84,0,0,1-12,21.3c-.59.37-1.21.7-1.83,1a24.87,24.87,0,0,1-30.07-38.26,15.59,15.59,0,0,1,1.09-1.22c.27-.29.54-.57.83-.83a24.82,24.82,0,0,1,32.65-1.43,22.74,22.74,0,0,1,2.51,2.3A24.74,24.74,0,0,1,302.15,128.62Z"/><path class="cls-1" d="M277.28,162a33.37,33.37,0,1,1,23.61-9.78A33.14,33.14,0,0,1,277.28,162Zm0-62.36a29,29,0,0,0-24,45.19A29.2,29.2,0,0,0,266,155.34a29,29,0,1,0,11.28-55.7Z"/><path class="cls-1" d="M277.28,96.24a32.38,32.38,0,1,1-22.89,9.49,32.29,32.29,0,0,1,22.89-9.49m0,62.37A29.74,29.74,0,0,0,294,153.49a29.89,29.89,0,0,0,13.23-24.87,29.82,29.82,0,0,0-5.12-16.77,30,30,0,1,0-24.87,46.76m0-64.37a34.36,34.36,0,1,0,24.32,10.07,34.22,34.22,0,0,0-24.32-10.07Zm0,62.37a28,28,0,1,1,15.65-4.78,27.85,27.85,0,0,1-15.65,4.78Z"/><path class="cls-5" d="M290.58,150.85l-1.89.9c-.13-.28-.26-.55-.4-.82a36.35,36.35,0,0,0-6.53-9.22,28,28,0,0,0-5.56-4.45c-.62-.36-1-.54-1.07-.58h0a24.36,24.36,0,0,1-6.74-3.6,23.08,23.08,0,0,1-4.71-4.83,28.16,28.16,0,0,1-4.28-9.12,37,37,0,0,1-1.15-6.45,15.59,15.59,0,0,1,1.09-1.22l.92,0a34.59,34.59,0,0,0,1.16,7.16,28.11,28.11,0,0,0,2.17,5.56h0a22.29,22.29,0,0,0,1.78,2.87l.18.24a21,21,0,0,0,4.11,4.17,22.74,22.74,0,0,0,6.2,3.3l.06,0,0,0h0l.44.22q.33.17.87.48c.28.17.59.36.94.59a31.47,31.47,0,0,1,5,4.19,38.52,38.52,0,0,1,6.87,9.68C290.28,150.22,290.43,150.53,290.58,150.85Z"/><path class="cls-5" d="M260.23,111.4l-.92,0c.27-.29.54-.57.83-.83h.06Q260.21,111,260.23,111.4Z"/><path class="cls-5" d="M295.43,113.66a14.47,14.47,0,0,1-.51,3.93,11.41,11.41,0,0,1-1.26,2.9,10.65,10.65,0,0,1-1.38,1.81,15.85,15.85,0,0,1-1.61,1.45c-1.14.91-2.42,1.78-3.94,3a42.39,42.39,0,0,0-3.38,3.08,46.29,46.29,0,0,0-5.14,6.21c-.22.32-.42.61-.6.89l-1.75-1.15.54-.81a49.69,49.69,0,0,1,5.46-6.61,44.67,44.67,0,0,1,3.94-3.55c1.16-.92,2.16-1.63,3-2.28a19,19,0,0,0,1.51-1.26,8.93,8.93,0,0,0,1.55-1.88,9.37,9.37,0,0,0,1-2.38,12.54,12.54,0,0,0,.43-3.36,20.68,20.68,0,0,0-.54-4.47,22.74,22.74,0,0,1,2.51,2.3A18.65,18.65,0,0,1,295.43,113.66Z"/><path class="cls-5" d="M265.54,127.55c0-.34,0-.71,0-1.1a15.36,15.36,0,0,1,.9-5.2,16.17,16.17,0,0,1,1.81-3.52,13.1,13.1,0,0,1,3.91-3.77,8.63,8.63,0,0,1,2-1,8,8,0,0,1,1-.24,9.78,9.78,0,0,1,1.86-.19,6.9,6.9,0,0,1,2.27.36,5.44,5.44,0,0,1,1.06.51,4.83,4.83,0,0,1,1,.83,5.17,5.17,0,0,1,1,1.67,5.73,5.73,0,0,1,.35,2,5.81,5.81,0,0,1-.3,1.84h0a.65.65,0,0,0-.07.16,6.92,6.92,0,0,1-1.16,1.85,5.26,5.26,0,0,1-1.15,1,4.44,4.44,0,0,1-1.53.59,4.71,4.71,0,0,1-.74.06,4.46,4.46,0,0,1-1.61-.3,5.73,5.73,0,0,1-2.09-1.38,6.28,6.28,0,0,1-1.38-2,5.62,5.62,0,0,1-.42-2.17,6.61,6.61,0,0,1,.21-1.64l-2-.51a8.83,8.83,0,0,0-.27,2.15,7.65,7.65,0,0,0,.58,3,8.38,8.38,0,0,0,1.09,1.86,8.57,8.57,0,0,0,2.53,2.21,7,7,0,0,0,3.39.92,5.92,5.92,0,0,0,1.1-.1,6.35,6.35,0,0,0,2.57-1.06,8.35,8.35,0,0,0,2.23-2.42,9.92,9.92,0,0,0,.52-1c.06-.13.1-.24.14-.32a1.84,1.84,0,0,0,.06-.18,7.59,7.59,0,0,0,.43-2.52,7.78,7.78,0,0,0-.49-2.71,7.23,7.23,0,0,0-1.38-2.33,6.93,6.93,0,0,0-1.38-1.19,7.08,7.08,0,0,0-2.27-1,9.06,9.06,0,0,0-2.2-.25,11.83,11.83,0,0,0-2.26.22,11.46,11.46,0,0,0-1.23.3,10.65,10.65,0,0,0-2.5,1.19,15.13,15.13,0,0,0-4.54,4.37,18.14,18.14,0,0,0-2,4,17.17,17.17,0,0,0-1,5.91c0,.44,0,.86,0,1.24l2.09-.14Z"/><text/></g></g></svg>